/vscmnt/brussel_pixiu_data/_data_brussel/112/vsc11236/PredSimResults/SUBJ10mtu3D/worker2.mot
version=1
nRows=8
nColumns=50
inDegrees=yes
endheader
                time	         pelvis_tilt	         pelvis_list	     pelvis_rotation	           pelvis_tx	           pelvis_ty	           pelvis_tz	       hip_flexion_r	     hip_adduction_r	      hip_rotation_r	        knee_angle_r	       ankle_angle_r	         mtp_angle_r	       hip_flexion_l	     hip_adduction_l	      hip_rotation_l	        knee_angle_l	       ankle_angle_l	         mtp_angle_l	    lumbar_extension	      lumbar_bending	     lumbar_rotation	 ercspn_r/activation	 intobl_r/activation	 extobl_r/activation	    abd_r/activation	    add_r/activation	hamstrings_r/activation	bifemsh_r/activation	glut_max_r/activation	iliopsoas_r/activation	rect_fem_r/activation	  vasti_r/activation	gastroc_r/activation	 soleus_r/activation	tib_ant_r/activation	 ercspn_l/activation	 intobl_l/activation	 extobl_l/activation	    abd_l/activation	    add_l/activation	hamstrings_l/activation	bifemsh_l/activation	glut_max_l/activation	iliopsoas_l/activation	rect_fem_l/activation	  vasti_l/activation	gastroc_l/activation	 soleus_l/activation	tib_ant_l/activation	
          0.53071270	         -3.47024831	         -0.87075722	         -5.27201168	          0.64216236	          0.82704906	          0.00920814	        -15.14923677	          2.23702813	          2.53140654	         -7.95032743	          8.61160625	         25.05236007	         30.84772293	         -1.79985514	         -2.59122681	         -9.45571745	          6.12413507	          0.26620116	         -8.52901462	          2.50404799	          1.97863997	          0.10836345	          0.01000016	          0.01000016	          0.04909451	          0.06154804	          0.01540662	          0.18331131	          0.03127627	          0.39847412	          0.01000222	          0.01000027	          0.19014362	          0.24303256	          0.02518673	          0.13330924	          0.12421224	          0.01000046	          0.02494135	          0.18968449	          0.06499496	          0.07203719	          0.07153336	          0.02825427	          0.01000783	          0.01041431	          0.01000033	          0.01000016	          0.30603570	
          0.54132695	         -3.45900739	         -0.94775728	         -5.13053922	          0.65734149	          0.82595485	          0.00877514	        -15.17974969	          2.31243243	          1.97154065	         -9.84045054	          7.95226612	         26.71174610	         30.34377721	         -1.47762463	         -1.53798219	        -10.40146481	          5.80867788	          0.25343819	         -8.33860841	          2.18083391	          2.20401511	          0.13040422	          0.01000018	          0.01000027	          0.04171497	          0.07459745	          0.02400894	          0.15575733	          0.02657509	          0.35660915	          0.01000101	          0.01000044	          0.16156254	          0.22956448	          0.02140084	          0.11327134	          0.12628807	          0.01000035	          0.02119243	          0.16117752	          0.05522581	          0.06125028	          0.11058003	          0.02400731	          0.01000038	          0.01000014	          0.01424929	          0.01385067	          0.33073200	
          0.55194120	         -3.44046477	         -1.00128369	         -4.95105172	          0.67268455	          0.82502772	          0.00827453	        -15.09121330	          2.36073020	          1.36510198	        -11.94915248	          7.16080736	         28.28893178	         29.75801975	         -1.18289224	         -0.51979821	        -11.23667828	          5.35983644	          0.25227904	         -8.13425434	          1.82571433	          2.42147901	          0.14229633	          0.01000011	          0.01000028	          0.03544466	          0.06338516	          0.02040051	          0.13234509	          0.02258054	          0.33575277	          0.01000147	          0.01000021	          0.13727757	          0.21270024	          0.01818402	          0.12974346	          0.10730652	          0.01000033	          0.08287090	          0.17329120	          0.04692896	          0.05204440	          0.12753591	          0.02039872	          0.01000044	          0.01000193	          0.01210751	          0.01176878	          0.38080628	
          0.56255546	         -3.41626438	         -1.04719120	         -4.73080662	          0.68800858	          0.82439867	          0.00768628	        -14.82567767	          2.39565208	          0.71041203	        -14.34246107	          6.21313044	         29.70391172	         29.18335962	         -0.89090117	          0.37438425	        -12.04950159	          4.78304971	          0.24054364	         -7.93664369	          1.46019210	          2.62616756	          0.15943020	          0.01000012	          0.01000018	          0.03011687	          0.07161568	          0.02616971	          0.11245204	          0.01918642	          0.28939369	          0.01000092	          0.01000022	          0.11664295	          0.18702914	          0.01545073	          0.12865224	          0.09117707	          0.01000027	          0.10777474	          0.17483197	          0.04435003	          0.04422226	          0.12056201	          0.01733256	          0.01000035	          0.04624587	          0.01028777	          0.01000026	          0.42287154	
          0.57316971	         -3.38818349	         -1.07901215	         -4.47732641	          0.70322327	          0.82417540	          0.00702049	        -14.34754751	          2.40326445	          0.00231692	        -17.05641326	          5.12725678	         30.78654359	         28.60623339	         -0.58896156	          1.16108418	        -12.85042687	          4.27184675	          0.22581161	         -7.75190366	          1.08003742	          2.81880907	          0.17368847	          0.01000013	          0.01000019	          0.02558991	          0.09644256	          0.03119972	          0.09554923	          0.01630248	          0.24589492	          0.01000066	          0.01000011	          0.09910999	          0.15891625	          0.01312830	          0.12735229	          0.07747206	          0.01000027	          0.12908881	          0.17377134	          0.04485295	          0.03757595	          0.11268563	          0.01472728	          0.01000033	          0.07710873	          0.01000051	          0.01000030	          0.44896112	
          0.58378397	         -3.35839818	         -1.09638183	         -4.19388905	          0.71826494	          0.82443703	          0.00628865	        -13.63308590	          2.37455196	         -0.76823077	        -20.10710652	          3.91646782	         31.35792426	         27.99354122	         -0.28143645	          1.85220123	        -13.59585045	          3.92616690	          0.21012767	         -7.58347983	          0.68802397	          2.99782871	          0.18556587	          0.01000014	          0.01000021	          0.02174342	          0.10854811	          0.03658928	          0.08118725	          0.01385204	          0.20893399	          0.01000055	          0.01000009	          0.08421246	          0.13502906	          0.01115497	          0.11935450	          0.06582708	          0.01000027	          0.15077457	          0.16777924	          0.04596565	          0.03192863	          0.09726468	          0.01251362	          0.01000029	          0.10997596	          0.01000115	          0.01000051	          0.45324200	
          0.59439822	         -3.32973146	         -1.10169984	         -3.88167437	          0.73305807	          0.82526269	          0.00550533	        -12.65897781	          2.30119374	         -1.60300837	        -23.49324056	          2.52363020	         31.34613398	         27.31559770	          0.02185385	          2.44949819	        -14.22280929	          3.76822941	          0.19620858	         -7.43713256	          0.28934232	          3.16064047	          0.19145859	          0.01000015	          0.01000024	          0.01847510	          0.13146738	          0.04363717	          0.06898450	          0.01176993	          0.17752866	          0.01000048	          0.01000006	          0.07155422	          0.11473242	          0.01000005	          0.11351756	          0.05593248	          0.01000027	          0.16513729	          0.16409526	          0.04816971	          0.02713013	          0.08328053	          0.01063274	          0.01000027	          0.13204221	          0.01000195	          0.01000097	          0.44122074	
          0.60501247	         -3.30443149	         -1.10156545	         -3.54290982	          0.74755875	          0.82667030	          0.00468714	        -11.42466095	          2.17787410	         -2.49810437	        -27.15903547	          0.84150674	         30.77206553	         26.54687177	          0.31008705	          2.96661594	        -14.67147707	          3.77612357	          0.18570286	         -7.31571552	         -0.10693693	          3.30536196	          0.19408402	          0.01000016	          0.01000026	          0.01569806	          0.15699354	          0.05727021	          0.06348084	          0.01000081	          0.15084393	          0.01000037	          0.01000003	          0.06079869	          0.09748663	          0.01000039	          0.11201059	          0.04752515	          0.01000027	          0.17416259	          0.16277146	          0.05142541	          0.02305277	          0.07217390	          0.01000022	          0.01000026	          0.14349577	          0.01000399	          0.01000122	          0.42108796	
